# FreeCAD v0.19 build24366 (Git) Arch module
# http://www.freecadweb.org
mtllib previous.mtl
o Body
usemtl color_cccccc
v 25.0 25.0 0.0
v -25.0 25.0 0.0
v -25.0 25.0 50.0
v 25.0 25.0 50.0
v 25.0 -25.0 0.0
v 25.0 -25.0 50.0
v -25.0 -25.0 0.0
v -25.0 -25.0 50.0
vn 0.0 1.0 0.0
vn 0.0 1.0 -0.0
vn 1.0 0.0 0.0
vn 1.0 0.0 0.0
vn 0.0 -1.0 0.0
vn 0.0 -1.0 0.0
vn -1.0 0.0 0.0
vn -1.0 0.0 0.0
vn 0.0 0.0 -1.0
vn 0.0 0.0 -1.0
vn 0.0 0.0 1.0
vn 0.0 0.0 1.0
f 1//1 2//1 3//1 
f 1//2 3//2 4//2 
f 5//3 1//3 4//3 
f 5//4 4//4 6//4 
f 7//5 5//5 6//5 
f 7//6 6//6 8//6 
f 2//7 7//7 8//7 
f 2//8 8//8 3//8 
f 2//9 1//9 5//9 
f 2//10 5//10 7//10 
f 4//11 3//11 6//11 
f 6//12 3//12 8//12 
